<svg width="44" height="46" viewBox="0 0 44 46" fill="none" xmlns="http://www.w3.org/2000/svg">
<path d="M2 46C0.895431 46 -3.91405e-08 45.1046 -8.74228e-08 44L-1.78918e-06 5.06829C-1.8685e-06 3.2538 2.22197 2.37699 3.46105 3.70252L39.8537 42.6342C41.0484 43.9123 40.1422 46 38.3927 46L2 46Z" fill="#0038A7"/>
<path d="M34.9545 13.8491L34.9544 13.8492L34.9633 13.8579L39.1335 17.9263C40.0964 18.8658 39.4313 20.5 38.086 20.5H30C29.1716 20.5 28.5 19.8284 28.5 19V10.9162C28.5 9.57067 30.1347 8.90565 31.074 9.86905L34.9545 13.8491Z" stroke="black"/>
<path d="M44 33L17 33C15.8954 33 15 32.1046 15 31L15 4" stroke="black"/>
</svg>
