<svg xmlns="http://www.w3.org/2000/svg" width="127" height="62" fill="none" viewBox="0 0 127 62"><path stroke="#000" d="M1 0V44H68V0"/><line x1="43" x2="58" y1="14.5" y2="14.5" stroke="#000"/><line x1="43" x2="51" y1="18.5" y2="18.5" stroke="#000"/><line x1="43" x2="58" y1="10.5" y2="10.5" stroke="#000"/><line x1="11" x2="58" y1="25.5" y2="25.5" stroke="#000"/><line x1="11" x2="35" y1="29.5" y2="29.5" stroke="#000"/><path fill="#000" d="M78.3684 35.0651L83.2756 30.1579H98.8947C99.6206 30.1579 100.317 29.8695 100.83 29.3563C101.343 28.843 101.632 28.1469 101.632 27.4211V15.1053C101.632 14.3794 101.343 13.6833 100.83 13.17C100.317 12.6568 99.6206 12.3684 98.8947 12.3684H81.1053C80.3794 12.3684 79.6833 12.6568 79.17 13.17C78.6568 13.6833 78.3684 14.3794 78.3684 15.1053V35.0651ZM78.3684 37H77V15.1053C77 14.0165 77.4325 12.9723 78.2024 12.2024C78.9723 11.4325 80.0165 11 81.1053 11H98.8947C99.9835 11 101.028 11.4325 101.798 12.2024C102.567 12.9723 103 14.0165 103 15.1053V27.4211C103 28.5098 102.567 29.554 101.798 30.3239C101.028 31.0938 99.9835 31.5263 98.8947 31.5263H83.8421L78.3684 37Z"/><path fill="#000" d="M125.684 60.0651L120.966 55.1579H105.947C105.249 55.1579 104.58 54.8695 104.087 54.3563C103.593 53.843 103.316 53.1469 103.316 52.4211V40.1053C103.316 39.3794 103.593 38.6833 104.087 38.17C104.58 37.6568 105.249 37.3684 105.947 37.3684H123.053C123.751 37.3684 124.42 37.6568 124.913 38.17C125.407 38.6833 125.684 39.3794 125.684 40.1053V60.0651ZM125.684 62H127V40.1053C127 39.0165 126.584 37.9723 125.844 37.2024C125.104 36.4325 124.1 36 123.053 36H105.947C104.9 36 103.896 36.4325 103.156 37.2024C102.416 37.9723 102 39.0165 102 40.1053V52.4211C102 53.5098 102.416 54.554 103.156 55.3239C103.896 56.0938 104.9 56.5263 105.947 56.5263H120.421L125.684 62Z"/><path fill="#CE1026" d="M58.2114 37.1667C59.9142 37.1667 61.2947 35.7862 61.2947 34.0833C61.2947 32.3805 59.9142 31 58.2114 31C56.5085 31 55.128 32.3805 55.128 34.0833C55.128 35.7862 56.5085 37.1667 58.2114 37.1667Z"/><path fill="#CE1026" d="M64.2084 40.4196C63.6072 39.8183 62.5743 38.7083 60.5701 38.7083H56.6543C54.8409 38.6987 53.0885 38.0531 51.7024 36.8839C50.3163 35.7147 49.3844 34.0962 49.0693 32.3104C49.0149 31.9478 48.8328 31.6165 48.5558 31.3762C48.2788 31.136 47.9251 31.0026 47.5584 31C46.618 31 45.878 31.8325 46.0168 32.7575C46.3525 34.7522 47.2392 36.6133 48.5768 38.1307C49.9144 39.648 51.6496 40.7612 53.5864 41.3446V60.2917C53.5864 61.1396 54.2801 61.8333 55.128 61.8333C55.9759 61.8333 56.6697 61.1396 56.6697 60.2917V52.5833H59.753V60.2917C59.753 61.1396 60.4468 61.8333 61.2947 61.8333C62.1426 61.8333 62.8364 61.1396 62.8364 60.2917V43.4104L67.8314 48.4054C67.9741 48.5481 68.1435 48.6614 68.33 48.7386C68.5165 48.8159 68.7164 48.8556 68.9182 48.8556C69.1201 48.8556 69.32 48.8159 69.5065 48.7386C69.6929 48.6614 69.8624 48.5481 70.0051 48.4054C70.1478 48.2627 70.2611 48.0932 70.3383 47.9068C70.4156 47.7203 70.4553 47.5204 70.4553 47.3185C70.4553 47.1167 70.4156 46.9168 70.3383 46.7303C70.2611 46.5438 70.1478 46.3744 70.0051 46.2317L64.2084 40.4196Z"/><path fill="#CE1026" d="M114.999 52C117.461 50.9157 119.243 49.0645 120.204 47.1902C121.15 45.3236 121.283 43.4647 120.44 42.3494C119.679 41.3503 118.688 40.9708 117.683 41.0017C116.677 41.0327 115.702 41.4897 114.999 42.1325C114.297 41.4897 113.321 41.0327 112.316 41.0017C111.31 40.9708 110.32 41.3503 109.558 42.3494C108.716 43.4647 108.849 45.3236 109.81 47.1902C110.756 49.0645 112.538 50.9157 114.999 52Z"/><path stroke="#000" d="M84 18L88 21.5L84 25"/><line x1="90" x2="97" y1="24.5" y2="24.5" stroke="#000"/><line x1="88.5" x2="88.5" y1="35" y2="44" stroke="#000"/><line x1="88.818" x2="97.818" y1="43.5" y2="43.5" stroke="#000"/><line x1="116.318" x2="116.318" y1="32" y2="23" stroke="#000"/><line x1="116" x2="107" y1="23.5" y2="23.5" stroke="#000"/><path stroke="#000" d="M11.9378 19.5L18 9L24.0622 19.5H11.9378Z"/><circle cx="33" cy="14" r="5.5" stroke="#000"/></svg>