<svg xmlns="http://www.w3.org/2000/svg" width="150" height="46" fill="none" viewBox="0 0 150 46"><path stroke="#000" d="M38 0V35C38 40.5228 42.4772 45 48 45H104C109.523 45 114 40.5228 114 35V0"/><path stroke="#000" d="M144 31L149 36L144 41"/><path stroke="#000" d="M131 41L126 36L131 31"/><line x1="133.626" x2="141.626" y1="40.668" y2="31.668" stroke="#000"/><line x1="148" x2="150" y1="9" y2="9" stroke="#000" stroke-width="2"/><line x1="61" x2="83" y1="13.5" y2="13.5" stroke="#000"/><line x1="61" x2="104" y1="10.5" y2="10.5" stroke="#000"/><line x1="61" x2="104" y1="7.5" y2="7.5" stroke="#000"/><line x1="148" x2="150" y1="15" y2="15" stroke="#000" stroke-width="2"/><line x1="148" x2="150" y1="21" y2="21" stroke="#000" stroke-width="2"/><line x1="141" x2="143" y1="9" y2="9" stroke="#000" stroke-width="2"/><line x1="141" x2="143" y1="15" y2="15" stroke="#000" stroke-width="2"/><line x1="141" x2="143" y1="21" y2="21" stroke="#000" stroke-width="2"/><line x1="38" x2="60" y1="29.5" y2="29.5" stroke="#000"/><line x1="92" x2="114" y1="29.5" y2="29.5" stroke="#000"/><path stroke="#000" d="M59.5 29.4793C67.5 29.5 64.7272 40.5 76 40.5C87.2728 40.5 84.5 29.4793 92 29.4793"/><circle cx="76" cy="30" r="8" fill="#0038A7"/><line x1="23.167" x2="23.167" y1="26" y2="36" stroke="#000"/><line x1="28" x2="18" y1="31.167" y2="31.167" stroke="#000"/><rect width="12" height="12" x="16.5" y="9.5" stroke="#000" rx="1.5"/><rect width="11" height="11" x="45" y="5" fill="#0038A7" rx="2"/><rect width="12" height="12" x=".5" y="9.5" stroke="#000" rx="1.5"/><rect width="12" height="12" x=".5" y="25.5" stroke="#000" rx="1.5"/><path fill="#000" d="M135 14.5H134V12.5C134 10.55 132.45 9 130.5 9C128.55 9 127 10.55 127 12.5V14.5H126V12.5C126 10 128 8 130.5 8C133 8 135 10 135 12.5V14.5Z"/><path fill="#000" d="M134.5 23H126.5C125.65 23 125 22.35 125 21.5V15.5C125 14.65 125.65 14 126.5 14H134.5C135.35 14 136 14.65 136 15.5V21.5C136 22.35 135.35 23 134.5 23ZM126.5 15C126.2 15 126 15.2 126 15.5V21.5C126 21.8 126.2 22 126.5 22H134.5C134.8 22 135 21.8 135 21.5V15.5C135 15.2 134.8 15 134.5 15H126.5Z"/><path fill="#000" d="M130.5 18C131.052 18 131.5 17.5523 131.5 17C131.5 16.4477 131.052 16 130.5 16C129.948 16 129.5 16.4477 129.5 17C129.5 17.5523 129.948 18 130.5 18Z"/><path fill="#000" d="M130.75 17H130.25L129.75 20H131.25L130.75 17Z"/></svg>