<svg width="50" height="54" viewBox="0 0 50 54" fill="none" xmlns="http://www.w3.org/2000/svg">
<path d="M34 23.0838C34 24.8778 31.8204 25.7645 30.568 24.48L20.35 14L9.51735 3.43156C8.23342 2.17895 9.12026 2.17506e-06 10.914 2.01824e-06L32 1.74846e-07C33.1046 7.82811e-08 34 0.895432 34 2L34 23.0838Z" fill="#CE1026"/>
<path d="M20.858 33.651L20.8581 33.6508L20.8492 33.6421L3.86651 17.0737C2.90356 16.1342 3.56869 14.5 4.914 14.5L38 14.5C38.8284 14.5 39.5 15.1716 39.5 16L39.5 49.0838C39.5 50.4293 37.8653 51.0944 36.926 50.131L20.858 33.651Z" stroke="black"/>
<path d="M20 5H47C48.1046 5 49 5.89543 49 7V34" stroke="black"/>
</svg>
